<?xml version="1.0" encoding="UTF-8" standalone="no"?>
<!-- Created with Inkscape (http://www.inkscape.org/) -->

<svg
   xmlns:dc="http://purl.org/dc/elements/1.1/"
   xmlns:cc="http://creativecommons.org/ns#"
   xmlns:rdf="http://www.w3.org/1999/02/22-rdf-syntax-ns#"
   xmlns:svg="http://www.w3.org/2000/svg"
   xmlns="http://www.w3.org/2000/svg"
   xmlns:sodipodi="http://sodipodi.sourceforge.net/DTD/sodipodi-0.dtd"
   xmlns:inkscape="http://www.inkscape.org/namespaces/inkscape"
   width="348.59048"
   height="249.82339"
   id="svg2"
   version="1.1"
   inkscape:version="0.48.2 r9819"
   sodipodi:docname="hipotese-sev.svg">
  <defs
     id="defs4">
    <marker
       inkscape:stockid="Arrow2Sstart"
       orient="auto"
       refY="0"
       refX="0"
       id="Arrow2Sstart"
       style="overflow:visible">
      <path
         id="path3791"
         style="font-size:12px;fill-rule:evenodd;stroke-width:0.625;stroke-linejoin:round"
         d="M 8.7185878,4.0337352 -2.2072895,0.01601326 8.7185884,-4.0017078 c -1.7454984,2.3720609 -1.7354408,5.6174519 -6e-7,8.035443 z"
         transform="matrix(0.3,0,0,0.3,-0.69,0)"
         inkscape:connector-curvature="0" />
    </marker>
    <marker
       inkscape:stockid="Arrow1Send"
       orient="auto"
       refY="0"
       refX="0"
       id="Arrow1Send"
       style="overflow:visible">
      <path
         id="path3776"
         d="M 0,0 5,-5 -12.5,0 5,5 0,0 z"
         style="fill-rule:evenodd;stroke:#000000;stroke-width:1pt;marker-start:none"
         transform="matrix(-0.2,0,0,-0.2,-1.2,0)"
         inkscape:connector-curvature="0" />
    </marker>
    <marker
       inkscape:stockid="Arrow2Sstart"
       orient="auto"
       refY="0"
       refX="0"
       id="marker3035"
       style="overflow:visible">
      <path
         id="path3037"
         style="font-size:12px;fill-rule:evenodd;stroke-width:0.625;stroke-linejoin:round"
         d="M 8.7185878,4.0337352 -2.2072895,0.01601326 8.7185884,-4.0017078 c -1.7454984,2.3720609 -1.7354408,5.6174519 -6e-7,8.035443 z"
         transform="matrix(0.3,0,0,0.3,-0.69,0)"
         inkscape:connector-curvature="0" />
    </marker>
    <marker
       inkscape:stockid="Arrow1Send"
       orient="auto"
       refY="0"
       refX="0"
       id="Arrow1Send-6"
       style="overflow:visible">
      <path
         id="path3776-5"
         d="M 0,0 5,-5 -12.5,0 5,5 0,0 z"
         style="fill-rule:evenodd;stroke:#000000;stroke-width:1pt;marker-start:none"
         transform="matrix(-0.2,0,0,-0.2,-1.2,0)"
         inkscape:connector-curvature="0" />
    </marker>
    <marker
       inkscape:stockid="Arrow1Send"
       orient="auto"
       refY="0"
       refX="0"
       id="Arrow1Send-5"
       style="overflow:visible">
      <path
         id="path3776-8"
         d="M 0,0 5,-5 -12.5,0 5,5 0,0 z"
         style="fill-rule:evenodd;stroke:#000000;stroke-width:1pt;marker-start:none"
         transform="matrix(-0.2,0,0,-0.2,-1.2,0)"
         inkscape:connector-curvature="0" />
    </marker>
  </defs>
  <sodipodi:namedview
     id="base"
     pagecolor="#ffffff"
     bordercolor="#666666"
     borderopacity="1.0"
     inkscape:pageopacity="0.0"
     inkscape:pageshadow="2"
     inkscape:zoom="0.98994949"
     inkscape:cx="152.67101"
     inkscape:cy="120.45623"
     inkscape:document-units="px"
     inkscape:current-layer="layer1"
     showgrid="false"
     inkscape:window-width="1680"
     inkscape:window-height="1001"
     inkscape:window-x="0"
     inkscape:window-y="25"
     inkscape:window-maximized="1"
     fit-margin-top="0"
     fit-margin-left="0"
     fit-margin-right="0"
     fit-margin-bottom="0" />
  <metadata
     id="metadata7">
    <rdf:RDF>
      <cc:Work
         rdf:about="">
        <dc:format>image/svg+xml</dc:format>
        <dc:type
           rdf:resource="http://purl.org/dc/dcmitype/StillImage" />
        <dc:title></dc:title>
      </cc:Work>
    </rdf:RDF>
  </metadata>
  <g
     inkscape:label="Layer 1"
     inkscape:groupmode="layer"
     id="layer1"
     transform="translate(-180.84975,-238.71875)">
    <text
       xml:space="preserve"
       style="font-size:30px;font-style:normal;font-weight:normal;line-height:125%;letter-spacing:0px;word-spacing:0px;fill:#000000;fill-opacity:1;stroke:none;font-family:Sans"
       x="265"
       y="203.07648"
       id="text4379"
       sodipodi:linespacing="125%"><tspan
         sodipodi:role="line"
         id="tspan4381"
         x="265"
         y="203.07648" /></text>
    <path
       style="fill:none;stroke:#000000;stroke-width:1.79999995;stroke-linecap:butt;stroke-linejoin:miter;stroke-miterlimit:4;stroke-opacity:1;stroke-dasharray:none"
       d="m 243.26113,285.36414 0,-45.11423 214.09142,-0.62763 0,47.25709"
       id="path3583"
       inkscape:connector-curvature="0"
       sodipodi:nodetypes="cccc" />
    <path
       style="fill:none;stroke:#000000;stroke-width:1.79999995;stroke-linecap:butt;stroke-linejoin:miter;stroke-miterlimit:4;stroke-opacity:1;stroke-dasharray:none"
       d="m 327.5,285.57647 c 0,-1.42858 0,-29.28572 0,-29.28572 l 48.57143,0 0,29.64286"
       id="path3585"
       inkscape:connector-curvature="0"
       sodipodi:nodetypes="cccc" />
    <path
       style="fill:#ffffff;stroke:#000000;stroke-width:2.39481211;stroke-linecap:round;stroke-miterlimit:4;stroke-dasharray:none;marker-start:url(#Arrow2Sstart);marker-end:none"
       d="m 200.1104,485.0818 0,-194.83822"
       id="path4662"
       inkscape:connector-curvature="0"
       sodipodi:nodetypes="cc" />
    <path
       style="fill:#0000ff;stroke:#000000;stroke-width:2.54767275;stroke-linecap:round;stroke-miterlimit:4;stroke-dasharray:none;marker-start:none;marker-end:url(#Arrow1Send)"
       d="m 200.1104,290.24358 324.85547,0"
       id="rect2985"
       inkscape:connector-curvature="0" />
    <text
       xml:space="preserve"
       style="font-size:15.28603649px;font-style:normal;font-weight:normal;line-height:125%;letter-spacing:0px;word-spacing:0px;fill:#000000;fill-opacity:1;stroke:none;font-family:Sans"
       x="476.51169"
       y="299.11227"
       id="text4576"
       sodipodi:linespacing="125%"
       transform="scale(1.0779889,0.92765334)"><tspan
         sodipodi:role="line"
         id="tspan4578"
         x="476.51169"
         y="299.11227"
         style="font-size:20.38138199px;font-style:normal;font-variant:normal;font-weight:normal;font-stretch:normal;font-family:cmmi10;-inkscape-font-specification:cmmi10">x</tspan></text>
    <text
       xml:space="preserve"
       style="font-size:15.28603649px;font-style:normal;font-weight:normal;line-height:125%;letter-spacing:0px;word-spacing:0px;fill:#000000;fill-opacity:1;stroke:none;font-family:Sans"
       x="166.92992"
       y="423.38483"
       id="text4576-4"
       sodipodi:linespacing="125%"
       transform="scale(1.0779889,0.92765334)"><tspan
         sodipodi:role="line"
         id="tspan4578-4"
         x="166.92992"
         y="423.38483"
         style="font-size:20.38138199px;font-style:normal;font-variant:normal;font-weight:normal;font-stretch:normal;font-family:cmmi10;-inkscape-font-specification:cmmi10">z</tspan></text>
    <path
       sodipodi:nodetypes="cccc"
       inkscape:connector-curvature="0"
       id="path3014-2-9-0"
       d="m 321.72425,281.97721 5.8686,10.81447 4.89048,-10.76509 z"
       style="fill:#0000ff;stroke:#000000;stroke-width:1.56645298;stroke-linecap:butt;stroke-linejoin:miter;stroke-miterlimit:4;stroke-opacity:1;stroke-dasharray:none" />
    <path
       sodipodi:nodetypes="cccc"
       inkscape:connector-curvature="0"
       id="path3014-2-9-0-8"
       d="m 369.72425,281.97721 5.8686,10.81447 4.89048,-10.76509 z"
       style="fill:#0000ff;stroke:#000000;stroke-width:1.56645298;stroke-linecap:butt;stroke-linejoin:miter;stroke-miterlimit:4;stroke-opacity:1;stroke-dasharray:none" />
    <path
       sodipodi:nodetypes="cccc"
       inkscape:connector-curvature="0"
       id="path3014-2-9-0-8-4"
       d="m 451.72425,281.97721 5.8686,10.81447 4.89048,-10.76509 z"
       style="fill:#ff0000;stroke:#000000;stroke-width:1.56645298;stroke-linecap:butt;stroke-linejoin:miter;stroke-miterlimit:4;stroke-opacity:1;stroke-dasharray:none" />
    <path
       sodipodi:nodetypes="cccc"
       inkscape:connector-curvature="0"
       id="path3014-2-9-0-8-4-3"
       d="m 237.72425,281.97721 5.8686,10.81447 4.89048,-10.76509 z"
       style="fill:#ff0000;stroke:#000000;stroke-width:1.56645298;stroke-linecap:butt;stroke-linejoin:miter;stroke-miterlimit:4;stroke-opacity:1;stroke-dasharray:none" />
    <text
       xml:space="preserve"
       style="font-size:30px;font-style:normal;font-weight:normal;line-height:125%;letter-spacing:0px;word-spacing:0px;fill:#000000;fill-opacity:1;stroke:none;font-family:Sans"
       x="224.28572"
       y="276.79507"
       id="text4383"
       sodipodi:linespacing="125%"><tspan
         sodipodi:role="line"
         id="tspan4385"
         x="224.28572"
         y="276.79507"
         style="font-size:20px">A</tspan></text>
    <text
       xml:space="preserve"
       style="font-size:30px;font-style:normal;font-weight:normal;line-height:125%;letter-spacing:0px;word-spacing:0px;fill:#000000;fill-opacity:1;stroke:none;font-family:Sans"
       x="461.02118"
       y="276.79507"
       id="text4383-9"
       sodipodi:linespacing="125%"><tspan
         sodipodi:role="line"
         id="tspan4385-9"
         x="461.02118"
         y="276.79507"
         style="font-size:20px">B</tspan></text>
    <text
       xml:space="preserve"
       style="font-size:30px;font-style:normal;font-weight:normal;line-height:125%;letter-spacing:0px;word-spacing:0px;fill:#000000;fill-opacity:1;stroke:none;font-family:Sans"
       x="306.16406"
       y="276.79507"
       id="text4383-9-9"
       sodipodi:linespacing="125%"><tspan
         sodipodi:role="line"
         id="tspan4385-9-5"
         x="306.16406"
         y="276.79507"
         style="font-size:20px">M</tspan></text>
    <text
       xml:space="preserve"
       style="font-size:30px;font-style:normal;font-weight:normal;line-height:125%;letter-spacing:0px;word-spacing:0px;fill:#000000;fill-opacity:1;stroke:none;font-family:Sans"
       x="382.44977"
       y="276.79507"
       id="text4383-9-5"
       sodipodi:linespacing="125%"><tspan
         sodipodi:role="line"
         id="tspan4385-9-2"
         x="382.44977"
         y="276.79507"
         style="font-size:20px">N</tspan></text>
    <path
       style="fill:#0000ff;stroke:#000000;stroke-width:1.79999995;stroke-linecap:butt;stroke-miterlimit:4;stroke-dasharray:none;marker-start:none;marker-end:none"
       d="m 200.1104,354.24358 324.85547,0"
       id="rect2985-1"
       inkscape:connector-curvature="0" />
    <path
       style="fill:#0000ff;stroke:#000000;stroke-width:2.5999999;stroke-linecap:butt;stroke-miterlimit:4;stroke-dasharray:none;marker-start:none;marker-end:none"
       d="m 200.1104,414.24358 324.85547,0"
       id="rect2985-1-3"
       inkscape:connector-curvature="0" />
    <path
       style="fill:#e9c6af;stroke:none"
       d="m 201.58273,322.34146 0,-30.80965 19.64778,0 c 17.63507,0 19.75632,0.18109 20.70738,1.76777 1.00915,1.68359 1.12507,1.68359 2.4344,0 1.26735,-1.62961 4.43887,-1.76777 40.57984,-1.76777 34.88101,0 39.40648,0.18228 41.0313,1.65273 1.69085,1.53021 1.87326,1.53021 2.46045,0 0.56003,-1.4594 3.17861,-1.65273 22.3856,-1.65273 19.51843,0 21.89251,0.18148 23.12617,1.76777 1.30933,1.68359 1.42526,1.68359 2.43441,0 0.97971,-1.6345 3.98386,-1.76777 39.85008,-1.76777 35.86594,0 38.87043,0.13328 39.85083,1.76777 1.00985,1.68359 1.11085,1.68359 2.1207,0 0.97153,-1.6197 3.55719,-1.76777 30.86927,-1.76777 19.61538,0 29.59543,0.34543 29.18461,1.01015 -0.34337,0.55559 0.0843,1.01016 0.95053,1.01016 1.39077,0 1.57485,3.48312 1.57485,29.7995 l 0,29.7995 -159.6041,0 -159.6041,0 0,-30.80966 z"
       id="path4716"
       inkscape:connector-curvature="0" />
    <path
       style="fill:#d38d5f;stroke:none"
       d="m 201.58273,384.13934 0,-28.96792 159.6041,0 159.6041,0 0,28.96792 0,28.96792 -159.6041,0 -159.6041,0 0,-28.96792 z"
       id="path4718"
       inkscape:connector-curvature="0" />
    <path
       style="fill:#a05a2c;stroke:#784421;stroke-width:0;stroke-miterlimit:4;stroke-dasharray:none"
       d="m 201.58273,444.06484 0,-29.29442 159.6041,0 159.6041,0 0,29.29442 0,29.29443 -159.6041,0 -159.6041,0 0,-29.29443 z"
       id="path4720"
       inkscape:connector-curvature="0" />
  </g>
</svg>
