<?xml version="1.0" encoding="UTF-8" standalone="no"?>
<!-- Created with Inkscape (http://www.inkscape.org/) -->

<svg
   xmlns:dc="http://purl.org/dc/elements/1.1/"
   xmlns:cc="http://creativecommons.org/ns#"
   xmlns:rdf="http://www.w3.org/1999/02/22-rdf-syntax-ns#"
   xmlns:svg="http://www.w3.org/2000/svg"
   xmlns="http://www.w3.org/2000/svg"
   xmlns:sodipodi="http://sodipodi.sourceforge.net/DTD/sodipodi-0.dtd"
   xmlns:inkscape="http://www.inkscape.org/namespaces/inkscape"
   id="svg2"
   version="1.1"
   inkscape:version="0.48.2 r9819"
   width="355.68872"
   height="404.35992"
   xml:space="preserve"
   sodipodi:docname="params-sev.svg"><metadata
     id="metadata8"><rdf:RDF><cc:Work
         rdf:about=""><dc:format>image/svg+xml</dc:format><dc:type
           rdf:resource="http://purl.org/dc/dcmitype/StillImage" /><dc:title /></cc:Work></rdf:RDF></metadata><defs
     id="defs6"><clipPath
       clipPathUnits="userSpaceOnUse"
       id="clipPath18"><path
         d="m 0,2008.59 2790,0 0,-2000.00016 -2790,0 L 0,2008.59 z"
         id="path20"
         inkscape:connector-curvature="0" /></clipPath><marker
       inkscape:stockid="Arrow2Sstart"
       orient="auto"
       refY="0"
       refX="0"
       id="Arrow2Sstart"
       style="overflow:visible"><path
         id="path3791"
         style="font-size:12px;fill-rule:evenodd;stroke-width:0.625;stroke-linejoin:round"
         d="M 8.7185878,4.0337352 -2.2072895,0.01601326 8.7185884,-4.0017078 c -1.7454984,2.3720609 -1.7354408,5.6174519 -6e-7,8.035443 z"
         transform="matrix(0.3,0,0,0.3,-0.69,0)"
         inkscape:connector-curvature="0" /></marker><marker
       inkscape:stockid="Arrow1Send"
       orient="auto"
       refY="0"
       refX="0"
       id="Arrow1Send"
       style="overflow:visible"><path
         id="path3776"
         d="M 0,0 5,-5 -12.5,0 5,5 0,0 z"
         style="fill-rule:evenodd;stroke:#000000;stroke-width:1pt;marker-start:none"
         transform="matrix(-0.2,0,0,-0.2,-1.2,0)"
         inkscape:connector-curvature="0" /></marker><marker
       inkscape:stockid="Arrow2Sstart"
       orient="auto"
       refY="0"
       refX="0"
       id="Arrow2Sstart-2"
       style="overflow:visible"><path
         id="path3791-4"
         style="font-size:12px;fill-rule:evenodd;stroke-width:0.625;stroke-linejoin:round"
         d="M 8.7185878,4.0337352 -2.2072895,0.01601326 8.7185884,-4.0017078 c -1.7454984,2.3720609 -1.7354408,5.6174519 -6e-7,8.035443 z"
         transform="matrix(0.3,0,0,0.3,-0.69,0)"
         inkscape:connector-curvature="0" /></marker><marker
       inkscape:stockid="Arrow1Send"
       orient="auto"
       refY="0"
       refX="0"
       id="Arrow1Send-5"
       style="overflow:visible"><path
         id="path3776-1"
         d="M 0,0 5,-5 -12.5,0 5,5 0,0 z"
         style="fill-rule:evenodd;stroke:#000000;stroke-width:1pt;marker-start:none"
         transform="matrix(-0.2,0,0,-0.2,-1.2,0)"
         inkscape:connector-curvature="0" /></marker><marker
       inkscape:stockid="Arrow2Sstart"
       orient="auto"
       refY="0"
       refX="0"
       id="Arrow2Sstart-9"
       style="overflow:visible"><path
         id="path3791-9"
         style="font-size:12px;fill-rule:evenodd;stroke-width:0.625;stroke-linejoin:round"
         d="M 8.7185878,4.0337352 -2.2072895,0.01601326 8.7185884,-4.0017078 c -1.7454984,2.3720609 -1.7354408,5.6174519 -6e-7,8.035443 z"
         transform="matrix(0.3,0,0,0.3,-0.69,0)"
         inkscape:connector-curvature="0" /></marker><marker
       inkscape:stockid="Arrow1Send"
       orient="auto"
       refY="0"
       refX="0"
       id="Arrow1Send-6"
       style="overflow:visible"><path
         id="path3776-0"
         d="M 0,0 5,-5 -12.5,0 5,5 0,0 z"
         style="fill-rule:evenodd;stroke:#000000;stroke-width:1pt;marker-start:none"
         transform="matrix(-0.2,0,0,-0.2,-1.2,0)"
         inkscape:connector-curvature="0" /></marker><marker
       inkscape:stockid="Arrow1Send"
       orient="auto"
       refY="0"
       refX="0"
       id="Arrow1Send-4"
       style="overflow:visible"><path
         id="path3776-5"
         d="M 0,0 5,-5 -12.5,0 5,5 0,0 z"
         style="fill-rule:evenodd;stroke:#000000;stroke-width:1pt;marker-start:none"
         transform="matrix(-0.2,0,0,-0.2,-1.2,0)"
         inkscape:connector-curvature="0" /></marker><marker
       inkscape:stockid="Arrow2Sstart"
       orient="auto"
       refY="0"
       refX="0"
       id="Arrow2Sstart-25"
       style="overflow:visible"><path
         id="path3791-47"
         style="font-size:12px;fill-rule:evenodd;stroke-width:0.625;stroke-linejoin:round"
         d="M 8.7185878,4.0337352 -2.2072895,0.01601326 8.7185884,-4.0017078 c -1.7454984,2.3720609 -1.7354408,5.6174519 -6e-7,8.035443 z"
         transform="matrix(0.3,0,0,0.3,-0.69,0)"
         inkscape:connector-curvature="0" /></marker></defs><sodipodi:namedview
     pagecolor="#ffffff"
     bordercolor="#666666"
     borderopacity="1"
     objecttolerance="10"
     gridtolerance="10"
     guidetolerance="10"
     inkscape:pageopacity="0"
     inkscape:pageshadow="2"
     inkscape:window-width="1680"
     inkscape:window-height="1001"
     id="namedview4"
     showgrid="false"
     inkscape:zoom="0.93930348"
     inkscape:cx="-153.66279"
     inkscape:cy="171.06645"
     inkscape:window-x="0"
     inkscape:window-y="25"
     inkscape:window-maximized="1"
     inkscape:current-layer="g10"
     fit-margin-top="0"
     fit-margin-left="0"
     fit-margin-right="0"
     fit-margin-bottom="0" /><g
     id="g10"
     inkscape:groupmode="layer"
     inkscape:label="ink_ext_XXXXXX"
     transform="matrix(1.25,0,0,-1.25,2.6956202e-6,404.35993)"><text
   xml:space="preserve"
   style="font-size:24px;font-style:normal;font-weight:normal;line-height:125%;letter-spacing:0px;word-spacing:0px;fill:#000000;fill-opacity:1;stroke:none;font-family:Sans"
   x="67.320206"
   y="-228.37253"
   id="text4379"
   sodipodi:linespacing="125%"
   transform="scale(1,-1)"><tspan
     sodipodi:role="line"
     id="tspan4381"
     x="67.320206"
     y="-228.37253" /></text>


<path
   style="fill:none;stroke:#000000;stroke-width:1.43999994;stroke-linecap:butt;stroke-linejoin:miter;stroke-miterlimit:4;stroke-opacity:1;stroke-dasharray:none"
   d="m 49.929104,162.5424 0,36.09139 171.273136,0.5021 0,-37.80567"
   id="path3583"
   inkscape:connector-curvature="0"
   sodipodi:nodetypes="cccc" /><path
   style="fill:none;stroke:#000000;stroke-width:1.43999994;stroke-linecap:butt;stroke-linejoin:miter;stroke-miterlimit:4;stroke-opacity:1;stroke-dasharray:none"
   d="m 117.3202,162.37254 c 0,1.14286 0,23.42857 0,23.42857 l 38.85714,0 0,-23.71428"
   id="path3585"
   inkscape:connector-curvature="0"
   sodipodi:nodetypes="cccc" /><path
   style="fill:#ffffff;stroke:#000000;stroke-width:1.91584969;stroke-linecap:round;stroke-miterlimit:4;stroke-dasharray:none;marker-start:url(#Arrow2Sstart);marker-end:none"
   d="m 15.40852,2.768272 0,155.870578"
   id="path4662"
   inkscape:connector-curvature="0"
   sodipodi:nodetypes="cc" /><path
   style="fill:#0000ff;stroke:#000000;stroke-width:2.03813815;stroke-linecap:round;stroke-miterlimit:4;stroke-dasharray:none;marker-start:none;marker-end:url(#Arrow1Send)"
   d="m 15.40852,158.63885 259.88438,0"
   id="rect2985"
   inkscape:connector-curvature="0" /><text
   xml:space="preserve"
   style="font-size:12.22882938px;font-style:normal;font-weight:normal;line-height:125%;letter-spacing:0px;word-spacing:0px;fill:#000000;fill-opacity:1;stroke:none;font-family:Sans"
   x="246.99666"
   y="-182.02458"
   id="text4576"
   sodipodi:linespacing="125%"
   transform="scale(1.0779889,-0.92765334)"><tspan
     sodipodi:role="line"
     id="tspan4578"
     x="246.99666"
     y="-182.02458"
     style="font-size:16.30510521px;font-style:normal;font-variant:normal;font-weight:normal;font-stretch:normal;font-family:cmmi10;-inkscape-font-specification:cmmi10">x</tspan></text>


<text
   xml:space="preserve"
   style="font-size:12.22882938px;font-style:normal;font-weight:normal;line-height:125%;letter-spacing:0px;word-spacing:0px;fill:#000000;fill-opacity:1;stroke:none;font-family:Sans"
   x="-0.66876608"
   y="-82.606544"
   id="text4576-4"
   sodipodi:linespacing="125%"
   transform="scale(1.0779889,-0.92765334)"><tspan
     sodipodi:role="line"
     id="tspan4578-4"
     x="-0.66876608"
     y="-82.606544"
     style="font-size:16.30510521px;font-style:normal;font-variant:normal;font-weight:normal;font-stretch:normal;font-family:cmmi10;-inkscape-font-specification:cmmi10">z</tspan></text>


<path
   sodipodi:nodetypes="cccc"
   inkscape:connector-curvature="0"
   id="path3014-2-9-0"
   d="m 112.6996,165.25195 4.69488,-8.65158 3.91238,8.61207 z"
   style="fill:#0000ff;stroke:#000000;stroke-width:1.25316238;stroke-linecap:butt;stroke-linejoin:miter;stroke-miterlimit:4;stroke-opacity:1;stroke-dasharray:none" /><path
   sodipodi:nodetypes="cccc"
   inkscape:connector-curvature="0"
   id="path3014-2-9-0-8"
   d="m 151.0996,165.25195 4.69488,-8.65158 3.91238,8.61207 z"
   style="fill:#0000ff;stroke:#000000;stroke-width:1.25316238;stroke-linecap:butt;stroke-linejoin:miter;stroke-miterlimit:4;stroke-opacity:1;stroke-dasharray:none" /><path
   sodipodi:nodetypes="cccc"
   inkscape:connector-curvature="0"
   id="path3014-2-9-0-8-4"
   d="m 216.6996,165.25195 4.69488,-8.65158 3.91238,8.61207 z"
   style="fill:#ff0000;stroke:#000000;stroke-width:1.25316238;stroke-linecap:butt;stroke-linejoin:miter;stroke-miterlimit:4;stroke-opacity:1;stroke-dasharray:none" /><path
   sodipodi:nodetypes="cccc"
   inkscape:connector-curvature="0"
   id="path3014-2-9-0-8-4-3"
   d="m 45.4996,165.25195 4.69488,-8.65158 3.912384,8.61207 z"
   style="fill:#ff0000;stroke:#000000;stroke-width:1.25316238;stroke-linecap:butt;stroke-linejoin:miter;stroke-miterlimit:4;stroke-opacity:1;stroke-dasharray:none" /><text
   xml:space="preserve"
   style="font-size:24px;font-style:normal;font-weight:normal;line-height:125%;letter-spacing:0px;word-spacing:0px;fill:#000000;fill-opacity:1;stroke:none;font-family:Sans"
   x="34.748775"
   y="-169.39764"
   id="text4383"
   sodipodi:linespacing="125%"
   transform="scale(1,-1)"><tspan
     sodipodi:role="line"
     id="tspan4385"
     x="34.748775"
     y="-169.39764"
     style="font-size:16px">A</tspan></text>


<text
   xml:space="preserve"
   style="font-size:24px;font-style:normal;font-weight:normal;line-height:125%;letter-spacing:0px;word-spacing:0px;fill:#000000;fill-opacity:1;stroke:none;font-family:Sans"
   x="224.13713"
   y="-169.39764"
   id="text4383-9"
   sodipodi:linespacing="125%"
   transform="scale(1,-1)"><tspan
     sodipodi:role="line"
     id="tspan4385-9"
     x="224.13713"
     y="-169.39764"
     style="font-size:16px">B</tspan></text>


<text
   xml:space="preserve"
   style="font-size:24px;font-style:normal;font-weight:normal;line-height:125%;letter-spacing:0px;word-spacing:0px;fill:#000000;fill-opacity:1;stroke:none;font-family:Sans"
   x="100.25146"
   y="-169.39764"
   id="text4383-9-9"
   sodipodi:linespacing="125%"
   transform="scale(1,-1)"><tspan
     sodipodi:role="line"
     id="tspan4385-9-5"
     x="100.25146"
     y="-169.39764"
     style="font-size:16px">M</tspan></text>


<text
   xml:space="preserve"
   style="font-size:24px;font-style:normal;font-weight:normal;line-height:125%;letter-spacing:0px;word-spacing:0px;fill:#000000;fill-opacity:1;stroke:none;font-family:Sans"
   x="161.28001"
   y="-169.39764"
   id="text4383-9-5"
   sodipodi:linespacing="125%"
   transform="scale(1,-1)"><tspan
     sodipodi:role="line"
     id="tspan4385-9-2"
     x="161.28001"
     y="-169.39764"
     style="font-size:16px">N</tspan></text>


<path
   style="fill:#0000ff;stroke:#000000;stroke-width:1.43999994;stroke-linecap:butt;stroke-miterlimit:4;stroke-dasharray:none;marker-start:none;marker-end:none"
   d="m 15.40852,107.43885 259.88438,0"
   id="rect2985-1"
   inkscape:connector-curvature="0" /><path
   style="fill:#0000ff;stroke:#000000;stroke-width:2.07999992;stroke-linecap:butt;stroke-miterlimit:4;stroke-dasharray:none;marker-start:none;marker-end:none"
   d="m 15.40852,59.438848 259.88438,0"
   id="rect2985-1-3"
   inkscape:connector-curvature="0" /><path
   style="fill:#e9c6af;stroke:none"
   d="m 16.586384,132.96055 0,24.64772 15.718224,0 c 14.108056,0 15.805056,-0.14488 16.565904,-1.41422 0.80732,-1.34687 0.900056,-1.34687 1.94752,0 1.01388,1.30369 3.551096,1.41422 32.46387,1.41422 27.904808,0 31.525188,-0.14583 32.825038,-1.32219 1.35268,-1.22417 1.49861,-1.22417 1.96836,0 0.44803,1.16752 2.54289,1.32219 17.90848,1.32219 15.61475,0 17.51401,-0.14519 18.50094,-1.41422 1.04746,-1.34687 1.14021,-1.34687 1.94753,0 0.78377,1.3076 3.18709,1.41422 31.88006,1.41422 28.69275,0 31.09635,-0.10663 31.88067,-1.41422 0.80788,-1.34687 0.88868,-1.34687 1.69656,0 0.77722,1.29576 2.84575,1.41422 24.69541,1.41422 15.69231,0 23.67635,-0.27635 23.34769,-0.80812 -0.2747,-0.44448 0.0674,-0.80813 0.76042,-0.80813 1.11262,0 1.25988,-2.7865 1.25988,-23.8396 l 0,-23.8396 -127.68328,0 -127.683276,0 0,24.64773 z"
   id="path4716"
   inkscape:connector-curvature="0" /><path
   style="fill:#d38d5f;stroke:none"
   d="m 16.586384,83.52224 0,23.17434 127.683276,0 127.68328,0 0,-23.17434 0,-23.174336 -127.68328,0 -127.683276,0 0,23.174336 z"
   id="path4718"
   inkscape:connector-curvature="0" /><path
   style="fill:#a05a2c;stroke:#784421;stroke-width:0;stroke-miterlimit:4;stroke-dasharray:none"
   d="m 16.586384,35.58184 0,23.435536 127.683276,0 127.68328,0 0,-23.435536 0,-23.435544 -127.68328,0 -127.683276,0 0,23.435544 z"
   id="path4720"
   inkscape:connector-curvature="0" /><text
   transform="scale(1.0779889,-0.92765334)"
   id="text80"
   x="212.9765"
   y="-140.5899"
   style="font-size:11.13184071px"><tspan
     style="font-size:16.30512047px;font-variant:normal;font-weight:normal;writing-mode:lr-tb;fill:#000000;fill-opacity:1;fill-rule:nonzero;stroke:none;font-family:DejaVu Sans;-inkscape-font-specification:DejaVuSans"
     x="212.9765"
     y="-140.5899"
     id="tspan82">ρ</tspan></text>


<text
   transform="scale(1.0779889,-0.92765334)"
   id="text84"
   x="223.32629"
   y="-137.32899"
   style="font-size:11.13184071px"><tspan
     style="font-size:10.59846306px;font-variant:normal;font-weight:normal;writing-mode:lr-tb;fill:#000000;fill-opacity:1;fill-rule:nonzero;stroke:none;font-family:Cmmi10;-inkscape-font-specification:Cmmi10"
     x="223.32629"
     y="-137.32899"
     id="tspan86">1</tspan></text>


<text
   transform="scale(1.0779889,-0.92765334)"
   id="text94"
   x="212.82153"
   y="-88.230583"
   style="font-size:11.13184071px"><tspan
     style="font-size:16.30512047px;font-variant:normal;font-weight:normal;writing-mode:lr-tb;fill:#000000;fill-opacity:1;fill-rule:nonzero;stroke:none;font-family:DejaVu Sans;-inkscape-font-specification:DejaVuSans"
     x="212.82153"
     y="-88.230583"
     id="tspan96">ρ</tspan></text>


<text
   transform="scale(1.0779889,-0.92765334)"
   id="text98"
   x="223.17139"
   y="-84.969666"
   style="font-size:11.13184071px"><tspan
     style="font-size:10.59846306px;font-variant:normal;font-weight:normal;writing-mode:lr-tb;fill:#000000;fill-opacity:1;fill-rule:nonzero;stroke:none;font-family:Cmmi10;-inkscape-font-specification:Cmmi10"
     x="223.17139"
     y="-84.969666"
     id="tspan100">2</tspan></text>


<text
   transform="scale(1.0779889,-0.92765334)"
   id="text102"
   x="212.77979"
   y="-42.031212"
   style="font-size:11.13184071px"><tspan
     style="font-size:16.30512047px;font-variant:normal;font-weight:normal;writing-mode:lr-tb;fill:#000000;fill-opacity:1;fill-rule:nonzero;stroke:none;font-family:DejaVu Sans;-inkscape-font-specification:DejaVuSans"
     x="212.77979"
     y="-42.031212"
     id="tspan104">ρ</tspan></text>


<text
   transform="scale(1.0779889,-0.92765334)"
   id="text106"
   x="223.12964"
   y="-38.770294"
   style="font-size:11.13184071px"><tspan
     style="font-size:10.59846306px;font-variant:normal;font-weight:normal;writing-mode:lr-tb;fill:#000000;fill-opacity:1;fill-rule:nonzero;stroke:none;font-family:Cmmi10;-inkscape-font-specification:Cmmi10"
     x="223.12964"
     y="-38.770294"
     id="tspan108">3</tspan></text>


<path
   style="fill:none;stroke:#000000;stroke-width:2.55999994;stroke-linecap:butt;stroke-linejoin:miter;stroke-miterlimit:4;stroke-opacity:1;stroke-dasharray:none;marker-start:url(#Arrow2Sstart);marker-end:url(#Arrow1Send)"
   d="m 179.22752,153.26855 0,-39.39089"
   id="path3323"
   inkscape:connector-curvature="0" /><text
   xml:space="preserve"
   style="font-size:24px;font-style:normal;font-weight:normal;line-height:125%;letter-spacing:0px;word-spacing:0px;fill:#000000;fill-opacity:1;stroke:none;font-family:Sans"
   x="186.01176"
   y="-127.05613"
   id="text4383-9-98"
   sodipodi:linespacing="125%"
   transform="scale(1,-1)"><tspan
     sodipodi:role="line"
     id="tspan4385-9-8"
     x="186.01176"
     y="-127.05613"
     style="font-size:16px">h<tspan
   style="font-size:52.00042725%;baseline-shift:sub"
   id="tspan4678">1</tspan></tspan></text>


<path
   style="fill:none;stroke:#000000;stroke-width:2.55999994;stroke-linecap:butt;stroke-linejoin:miter;stroke-miterlimit:4;stroke-opacity:1;stroke-dasharray:none;marker-start:url(#Arrow2Sstart);marker-end:url(#Arrow1Send)"
   d="m 179.22752,103.66855 0,-39.39089"
   id="path3323-7"
   inkscape:connector-curvature="0" /><text
   xml:space="preserve"
   style="font-size:24px;font-style:normal;font-weight:normal;line-height:125%;letter-spacing:0px;word-spacing:0px;fill:#000000;fill-opacity:1;stroke:none;font-family:Sans"
   x="186.01176"
   y="-77.456139"
   id="text4383-9-98-5"
   sodipodi:linespacing="125%"
   transform="scale(1,-1)"><tspan
     sodipodi:role="line"
     id="tspan4385-9-8-7"
     x="186.01176"
     y="-77.456139"
     style="font-size:16px">h<tspan
   style="font-size:8.32006836px;baseline-shift:sub"
   id="tspan4678-1">2</tspan></tspan></text>


<path
   style="fill:#ffffff;stroke:#000000;stroke-width:1.91584969;stroke-linecap:round;stroke-miterlimit:4;stroke-dasharray:none;marker-start:url(#Arrow2Sstart);marker-end:none"
   d="m 21.117928,320.71967 0,-89.56447"
   id="path4662-6"
   inkscape:connector-curvature="0" /><text
   xml:space="preserve"
   style="font-size:12.22882938px;font-style:normal;font-weight:normal;line-height:125%;letter-spacing:0px;word-spacing:0px;fill:#000000;fill-opacity:1;stroke:none;font-family:Sans"
   x="-1.4808352"
   y="-295.5538"
   id="text4576-4-1"
   sodipodi:linespacing="125%"
   transform="scale(1.0779889,-0.92765334)"><tspan
     sodipodi:role="line"
     id="tspan4578-4-0"
     x="-1.4808352"
     y="-295.5538"
     style="font-size:16.30510521px;font-style:normal;font-variant:normal;font-weight:normal;font-stretch:normal;font-family:cmmi10;-inkscape-font-specification:cmmi10">ρ<tspan
   style="font-size:10.59846783px;baseline-shift:sub"
   id="tspan3513">a</tspan></tspan></text>

<path
   style="fill:#0000ff;stroke:#000000;stroke-width:2.03813815;stroke-linecap:round;stroke-miterlimit:4;stroke-dasharray:none;marker-start:none;marker-end:url(#Arrow1Send)"
   d="m 21.087112,230.63887 259.884378,0"
   id="rect2985-6"
   inkscape:connector-curvature="0" /><text
   xml:space="preserve"
   style="font-size:12.22882938px;font-style:normal;font-weight:normal;line-height:125%;letter-spacing:0px;word-spacing:0px;fill:#000000;fill-opacity:1;stroke:none;font-family:Sans"
   x="114.51576"
   y="-233.6469"
   id="text4576-9"
   sodipodi:linespacing="125%"
   transform="scale(1.0779889,-0.92765334)"><tspan
     sodipodi:role="line"
     id="tspan4578-3"
     x="114.51576"
     y="-233.6469"
     style="font-size:14.39999962px;font-style:normal;font-variant:normal;font-weight:normal;font-stretch:normal;font-family:Sans;-inkscape-font-specification:Sans">AB/2</tspan></text>

<rect
   style="fill:#000000;stroke:none"
   id="rect3861-22-7"
   width="5.13834"
   height="5.13834"
   x="32.027355"
   y="-314.69537"
   transform="scale(1,-1)" /><rect
   style="fill:#000000;stroke:none"
   id="rect3861-22-7-8"
   width="5.13834"
   height="5.13834"
   x="44.957298"
   y="-313.07913"
   transform="scale(1,-1)" /><rect
   style="fill:#000000;stroke:none"
   id="rect3861-22-7-6"
   width="5.13834"
   height="5.13834"
   x="60.311623"
   y="-313.07913"
   transform="scale(1,-1)" /><rect
   style="fill:#000000;stroke:none"
   id="rect3861-22-7-0"
   width="5.13834"
   height="5.13834"
   x="79.706558"
   y="-313.07913"
   transform="scale(1,-1)" /><rect
   style="fill:#000000;stroke:none"
   id="rect3861-22-7-4"
   width="5.13834"
   height="5.13834"
   x="96.677109"
   y="-310.65479"
   transform="scale(1,-1)" /><rect
   style="fill:#000000;stroke:none"
   id="rect3861-22-7-67"
   width="5.13834"
   height="5.13834"
   x="112.03143"
   y="-301.76544"
   transform="scale(1,-1)" /><rect
   style="fill:#000000;stroke:none"
   id="rect3861-22-7-60"
   width="5.13834"
   height="5.13834"
   x="133.85072"
   y="-289.64362"
   transform="scale(1,-1)" /><rect
   style="fill:#000000;stroke:none"
   id="rect3861-22-7-9"
   width="5.13834"
   height="5.13834"
   x="150.82127"
   y="-272.67303"
   transform="scale(1,-1)" /><rect
   style="fill:#000000;stroke:none"
   id="rect3861-22-7-7"
   width="5.13834"
   height="5.13834"
   x="171.83246"
   y="-263.78369"
   transform="scale(1,-1)" /><rect
   style="fill:#000000;stroke:none"
   id="rect3861-22-7-5"
   width="5.13834"
   height="5.13834"
   x="193.65175"
   y="-256.51059"
   transform="scale(1,-1)" /><rect
   style="fill:#000000;stroke:none"
   id="rect3861-22-7-97"
   width="5.13834"
   height="5.13834"
   x="205.77359"
   y="-258.12686"
   transform="scale(1,-1)" /><rect
   style="fill:#000000;stroke:none"
   id="rect3861-22-7-85"
   width="5.13834"
   height="5.13834"
   x="219.51167"
   y="-271.86493"
   transform="scale(1,-1)" /><rect
   style="fill:#000000;stroke:none"
   id="rect3861-22-7-3"
   width="5.13834"
   height="5.13834"
   x="228.401"
   y="-282.37051"
   transform="scale(1,-1)" /><rect
   style="fill:#000000;stroke:none"
   id="rect3861-22-7-38"
   width="5.13834"
   height="5.13834"
   x="238.90659"
   y="-291.25986"
   transform="scale(1,-1)" /><path
   style="fill:none;stroke:#ff0000;stroke-width:3.20000004999999987;stroke-linecap:butt;stroke-linejoin:miter;stroke-miterlimit:4;stroke-opacity:1;stroke-dasharray:6.40000000000000036, 3.20000000000000018;stroke-dashoffset:0"
   d="m 40.455508,-143.72352 c 0,0 77.717162,1e-5 117.108052,21.29238 39.39089,21.29237 46.51403,52.105734 83.55689,52.478129 26.03842,0.261766 65.48972,-47.155039 65.48972,-47.155039"
   id="path3155"
   inkscape:connector-curvature="0"
   transform="matrix(0.8,0,0,-0.8,0,201)"
   sodipodi:nodetypes="cssc" /></g></svg>